<svg width="30" height="30" fill="none" xmlns="http://www.w3.org/2000/svg"><path d="M26.602 6.328h-.47v-.586a1.76 1.76 0 0 0-1.757-1.758 1.76 1.76 0 0 0-1.758 1.758v.586h-1.172V2.93a1.76 1.76 0 0 0-1.758-1.758h-2.079a.586.586 0 0 0 0 1.172h2.08c.323 0 .585.263.585.586v3.398h-1.171V4.102a.586.586 0 0 0-.586-.586h-7.032a.586.586 0 0 0-.586.586v2.226H9.727V2.93c0-.323.262-.586.585-.586h2.023a.586.586 0 0 0 0-1.172h-2.023A1.76 1.76 0 0 0 8.556 2.93v3.398H7.383v-.586a1.76 1.76 0 0 0-1.758-1.758 1.76 1.76 0 0 0-1.758 1.758v.586h-.47A3.402 3.402 0 0 0 0 9.726V25.43a3.402 3.402 0 0 0 3.398 3.398h23.204A3.402 3.402 0 0 0 30 25.43V9.726a3.402 3.402 0 0 0-3.398-3.398Zm-2.813-.586a.587.587 0 0 1 1.172 0v.586h-1.172v-.586ZM12.07 4.688h5.86v1.64h-5.86v-1.64ZM5.04 5.742a.587.587 0 0 1 1.17 0v.586H5.04v-.586ZM28.827 25.43a2.228 2.228 0 0 1-2.226 2.226H3.398a2.228 2.228 0 0 1-2.226-2.226V9.726c0-1.227.998-2.226 2.226-2.226h23.204c1.228 0 2.226.999 2.226 2.226V25.43Z" fill="#67D7C1"/><path d="M15 11.442a6.143 6.143 0 0 0-6.136 6.136A6.143 6.143 0 0 0 15 23.715a6.143 6.143 0 0 0 6.136-6.137A6.143 6.143 0 0 0 15 11.442Zm0 11.1a4.97 4.97 0 0 1-4.964-4.964A4.97 4.97 0 0 1 15 12.614a4.97 4.97 0 0 1 4.965 4.964A4.97 4.97 0 0 1 15 22.543Z" fill="#67D7C1"/><path d="M17.167 15.82h-.402v-.401a1.11 1.11 0 0 0-1.109-1.11H14.36a1.11 1.11 0 0 0-1.11 1.11v.401h-.401a1.11 1.11 0 0 0-1.11 1.11v1.297c0 .611.498 1.109 1.11 1.109h.401v.402c0 .611.498 1.109 1.11 1.109h1.297a1.11 1.11 0 0 0 1.11-1.11v-.401h.4a1.11 1.11 0 0 0 1.11-1.11V16.93a1.11 1.11 0 0 0-1.11-1.109Zm-.063 2.344h-.925a.586.586 0 0 0-.586.586v.925h-1.171v-.925a.586.586 0 0 0-.586-.586h-.925v-1.172h.925a.586.586 0 0 0 .585-.586v-.924h1.172v.924c0 .324.263.586.586.586h.925v1.172ZM14.972 2.344a.586.586 0 1 0 0-1.172.586.586 0 0 0 0 1.172Z" fill="#67D7C1"/></svg>