<svg width="34" height="34" fill="none" xmlns="http://www.w3.org/2000/svg"><g clip-path="url(#a)" fill="#67D7C1"><path d="M2.773 4.177a7.232 7.232 0 0 0-1.067 7.503l-.14.141a.996.996 0 0 0 .704 1.7c.254 0 1.35-.938 1.35-.938l8.474-8.473.646-.647a.996.996 0 1 0-1.409-1.408l-.14.141a7.238 7.238 0 0 0-6.94.642L1.705.292A.996.996 0 1 0 .296 1.7l2.477 2.477ZM22.511 28.09c.55 0 .996-.446.996-.996v-1.992H10.493v1.992c0 .55.446.996.996.996H22.51ZM33.003 19.126h-4.914a.999.999 0 0 0-.996.996.998.998 0 0 0-.996-.996H9.762a.998.998 0 0 0-.996.996.999.999 0 0 0-.996-.996H.997a.999.999 0 0 0-.996.996v1.992c0 .55.446.996.996.996h32.006c.55 0 .996-.446.996-.996v-1.992a.999.999 0 0 0-.996-.996ZM25.134 32.008h-4.482v-1.926h-7.304v1.926H8.4A.996.996 0 0 0 8.4 34h16.733a.996.996 0 0 0 0-1.992Z"/></g><defs><clipPath id="a"><path fill="#fff" d="M0 0h34v34H0z"/></clipPath></defs></svg>